<svg width="15" height="15" viewBox="0 0 15 15" fill="none" xmlns="http://www.w3.org/2000/svg">
<g id="Group">
<path id="Vector" d="M2 3C1.73478 3 1.48043 3.10536 1.29289 3.29289C1.10536 3.48043 1 3.73478 1 4V13C1 13.2652 1.10536 13.5196 1.29289 13.7071C1.48043 13.8946 1.73478 14 2 14H13C13.2652 14 13.5196 13.8946 13.7071 13.7071C13.8946 13.5196 14 13.2652 14 13V4C14 3.73478 13.8946 3.48043 13.7071 3.29289C13.5196 3.10536 13.2652 3 13 3H11" stroke="#343A40" stroke-linecap="round" stroke-linejoin="round"/>
<path id="Vector_2" d="M4 1V5" stroke="#343A40" stroke-linecap="round" stroke-linejoin="round"/>
<path id="Vector_3" d="M11 1V5" stroke="#343A40" stroke-linecap="round" stroke-linejoin="round"/>
<path id="Vector_4" d="M4 3H9" stroke="#343A40" stroke-linecap="round" stroke-linejoin="round"/>
<path id="Vector_5" d="M4 8.5C4.27614 8.5 4.5 8.27614 4.5 8C4.5 7.72386 4.27614 7.5 4 7.5C3.72386 7.5 3.5 7.72386 3.5 8C3.5 8.27614 3.72386 8.5 4 8.5Z" stroke="#343A40" stroke-linecap="round" stroke-linejoin="round"/>
<path id="Vector_6" d="M7.5 8.5C7.77614 8.5 8 8.27614 8 8C8 7.72386 7.77614 7.5 7.5 7.5C7.22386 7.5 7 7.72386 7 8C7 8.27614 7.22386 8.5 7.5 8.5Z" stroke="#343A40" stroke-linecap="round" stroke-linejoin="round"/>
<path id="Vector_7" d="M11 8.5C11.2761 8.5 11.5 8.27614 11.5 8C11.5 7.72386 11.2761 7.5 11 7.5C10.7239 7.5 10.5 7.72386 10.5 8C10.5 8.27614 10.7239 8.5 11 8.5Z" stroke="#343A40" stroke-linecap="round" stroke-linejoin="round"/>
<path id="Vector_8" d="M4 11.5C4.27614 11.5 4.5 11.2761 4.5 11C4.5 10.7239 4.27614 10.5 4 10.5C3.72386 10.5 3.5 10.7239 3.5 11C3.5 11.2761 3.72386 11.5 4 11.5Z" stroke="#343A40" stroke-linecap="round" stroke-linejoin="round"/>
</g>
</svg>
