<svg width="33" height="32" viewBox="0 0 33 32" fill="none" xmlns="http://www.w3.org/2000/svg">
<g clip-path="url(#clip0_9_2365)">
<path d="M3.44859 5.71423C2.84238 5.71423 2.261 5.95505 1.83234 6.3837C1.40369 6.81236 1.16287 7.39374 1.16287 7.99995V28.5714C1.16287 29.1776 1.40369 29.759 1.83234 30.1876C2.261 30.6163 2.84238 30.8571 3.44859 30.8571H28.5914C29.1977 30.8571 29.779 30.6163 30.2077 30.1876C30.6363 29.759 30.8772 29.1776 30.8772 28.5714V7.99995C30.8772 7.39374 30.6363 6.81236 30.2077 6.3837C29.779 5.95505 29.1977 5.71423 28.5914 5.71423H24.02" stroke="#4886FF" stroke-linecap="round" stroke-linejoin="round"/>
<path d="M8.02002 1.14282V10.2857" stroke="#4886FF" stroke-linecap="round" stroke-linejoin="round"/>
<path d="M24.02 1.14282V10.2857" stroke="#4886FF" stroke-linecap="round" stroke-linejoin="round"/>
<path d="M8.02002 5.71423H19.4486" stroke="#4886FF" stroke-linecap="round" stroke-linejoin="round"/>
<path d="M8.02002 18.2857C8.65121 18.2857 9.16288 17.774 9.16288 17.1429C9.16288 16.5117 8.65121 16 8.02002 16C7.38884 16 6.87717 16.5117 6.87717 17.1429C6.87717 17.774 7.38884 18.2857 8.02002 18.2857Z" stroke="#4886FF" stroke-linecap="round" stroke-linejoin="round"/>
<path d="M16.02 18.2857C16.6512 18.2857 17.1629 17.774 17.1629 17.1429C17.1629 16.5117 16.6512 16 16.02 16C15.3888 16 14.8772 16.5117 14.8772 17.1429C14.8772 17.774 15.3888 18.2857 16.02 18.2857Z" stroke="#4886FF" stroke-linecap="round" stroke-linejoin="round"/>
<path d="M24.02 18.2857C24.6512 18.2857 25.1629 17.774 25.1629 17.1429C25.1629 16.5117 24.6512 16 24.02 16C23.3888 16 22.8772 16.5117 22.8772 17.1429C22.8772 17.774 23.3888 18.2857 24.02 18.2857Z" stroke="#4886FF" stroke-linecap="round" stroke-linejoin="round"/>
<path d="M8.02002 25.1428C8.65121 25.1428 9.16288 24.6311 9.16288 23.9999C9.16288 23.3687 8.65121 22.8571 8.02002 22.8571C7.38884 22.8571 6.87717 23.3687 6.87717 23.9999C6.87717 24.6311 7.38884 25.1428 8.02002 25.1428Z" stroke="#4886FF" stroke-linecap="round" stroke-linejoin="round"/>
</g>
<defs>
<clipPath id="clip0_9_2365">
<rect width="32" height="32" fill="white" transform="translate(0.0200195)"/>
</clipPath>
</defs>
</svg>
