<svg width="33" height="32" viewBox="0 0 33 32" fill="none" xmlns="http://www.w3.org/2000/svg">
<g clip-path="url(#clip0_9_2332)">
<path d="M16.8429 30.6971C16.3133 30.9014 15.7267 30.9014 15.1972 30.6971V30.6971C11.0616 29.0755 7.5106 26.2455 5.00719 22.576C2.50377 18.9065 1.1641 14.5678 1.16288 10.1257V3.42854C1.16288 2.82233 1.4037 2.24095 1.83235 1.81229C2.261 1.38364 2.84238 1.14282 3.44859 1.14282H28.5914C29.1977 1.14282 29.779 1.38364 30.2077 1.81229C30.6363 2.24095 30.8772 2.82233 30.8772 3.42854V10.1028C30.8805 14.5488 29.543 18.8925 27.0393 22.5665C24.5356 26.2406 20.9821 29.0741 16.8429 30.6971V30.6971Z" stroke="#4886FF" stroke-linecap="round" stroke-linejoin="round"/>
<path d="M19.4486 12.5714H12.5915C11.3291 12.5714 10.3057 13.5948 10.3057 14.8571V19.4286C10.3057 20.6909 11.3291 21.7143 12.5915 21.7143H19.4486C20.711 21.7143 21.7343 20.6909 21.7343 19.4286V14.8571C21.7343 13.5948 20.711 12.5714 19.4486 12.5714Z" stroke="#4886FF" stroke-linecap="round" stroke-linejoin="round"/>
<path d="M19.4486 12.5713V10.2856C19.4486 9.83538 19.3599 9.38954 19.1876 8.97357C19.0153 8.5576 18.7628 8.17963 18.4444 7.86126C18.126 7.54289 17.7481 7.29034 17.3321 7.11804C16.9161 6.94574 16.4703 6.85706 16.02 6.85706C15.5698 6.85706 15.1239 6.94574 14.708 7.11804C14.292 7.29034 13.914 7.54289 13.5957 7.86126C13.2773 8.17963 13.0247 8.5576 12.8524 8.97357C12.6801 9.38954 12.5915 9.83538 12.5915 10.2856V12.5713" stroke="#4886FF" stroke-linecap="round" stroke-linejoin="round"/>
</g>
<defs>
<clipPath id="clip0_9_2332">
<rect width="32" height="32" fill="white" transform="translate(0.0200195)"/>
</clipPath>
</defs>
</svg>
