<svg width="33" height="32" viewBox="0 0 33 32" fill="none" xmlns="http://www.w3.org/2000/svg">
<path d="M16.02 22.903V25.2115" stroke="#4886FF" stroke-linecap="round" stroke-linejoin="round"/>
<path d="M16.02 11.4515V13.6001" stroke="#4886FF" stroke-linecap="round" stroke-linejoin="round"/>
<path d="M16.02 30.8343C24.02 30.8343 29.7343 28.0001 29.7343 21.6915C29.7343 14.8343 26.3057 10.2629 19.4486 6.83434L22.1457 3.36005C22.2828 3.1321 22.3571 2.87198 22.3612 2.60604C22.3653 2.34011 22.299 2.07782 22.169 1.84576C22.0391 1.61371 21.8501 1.42013 21.6212 1.28466C21.3923 1.14918 21.1317 1.07663 20.8657 1.07434H11.1743C10.9083 1.07663 10.6477 1.14918 10.4188 1.28466C10.19 1.42013 10.001 1.61371 9.87103 1.84576C9.74108 2.07782 9.67478 2.34011 9.67887 2.60604C9.68296 2.87198 9.75728 3.1321 9.8943 3.36005L12.5914 6.8572C5.7343 10.3086 2.30573 14.8801 2.30573 21.7372C2.30573 28.0001 8.02002 30.8343 16.02 30.8343Z" stroke="#4886FF" stroke-linecap="round" stroke-linejoin="round"/>
<path d="M13.7343 21.8515C14.0132 22.1826 14.3642 22.4454 14.7604 22.6197C15.1566 22.794 15.5875 22.8753 16.02 22.8572C16.6811 22.9023 17.3338 22.6893 17.8411 22.2631C18.3483 21.8368 18.6706 21.2305 18.74 20.5715C18.6706 19.9126 18.3483 19.3063 17.8411 18.88C17.3338 18.4537 16.6811 18.2408 16.02 18.2858C15.359 18.3309 14.7062 18.1179 14.199 17.6916C13.6917 17.2654 13.3695 16.659 13.3 16.0001C13.3639 15.3389 13.6846 14.7291 14.1932 14.3017C14.7017 13.8743 15.3577 13.6634 16.02 13.7144C16.4449 13.6884 16.8703 13.7569 17.2655 13.915C17.6607 14.0731 18.016 14.3168 18.3057 14.6287" stroke="#4886FF" stroke-linecap="round" stroke-linejoin="round"/>
</svg>
