<svg width="33" height="32" viewBox="0 0 33 32" fill="none" xmlns="http://www.w3.org/2000/svg">
<path d="M21.7343 3.42859H25.1629C25.7691 3.42859 26.3505 3.6694 26.7791 4.09806C27.2078 4.52671 27.4486 5.10809 27.4486 5.7143V28.5714C27.4486 29.1777 27.2078 29.759 26.7791 30.1877C26.3505 30.6163 25.7691 30.8572 25.1629 30.8572H6.87716C6.27095 30.8572 5.68957 30.6163 5.26092 30.1877C4.83226 29.759 4.59145 29.1777 4.59145 28.5714V5.7143C4.59145 5.10809 4.83226 4.52671 5.26092 4.09806C5.68957 3.6694 6.27095 3.42859 6.87716 3.42859H10.3057" stroke="#4886FF" stroke-linecap="round" stroke-linejoin="round"/>
<path d="M19.4486 1.14288H12.5914C11.3291 1.14288 10.3057 2.16623 10.3057 3.4286V4.57146C10.3057 5.83382 11.3291 6.85717 12.5914 6.85717H19.4486C20.711 6.85717 21.7343 5.83382 21.7343 4.57146V3.4286C21.7343 2.16623 20.711 1.14288 19.4486 1.14288Z" stroke="#4886FF" stroke-linecap="round" stroke-linejoin="round"/>
<path d="M10.3057 19.4286L14.8772 22.8572L20.5914 13.7143" stroke="#4886FF" stroke-linecap="round" stroke-linejoin="round"/>
</svg>
