<svg width="14" height="14" viewBox="0 0 14 14" fill="none" xmlns="http://www.w3.org/2000/svg">
<g clip-path="url(#clip0_9_2455)">
<path d="M11 3H6.5C5.94772 3 5.5 3.44772 5.5 4V8.5C5.5 9.05228 5.94772 9.5 6.5 9.5H11C11.5523 9.5 12 9.05228 12 8.5V4C12 3.44772 11.5523 3 11 3Z" stroke="#FBFCFC" stroke-linecap="round" stroke-linejoin="round"/>
<path d="M4 12H11.61C11.8723 12.0011 12.1237 12.1053 12.31 12.29L13.5 13.5" stroke="#FBFCFC" stroke-linecap="round" stroke-linejoin="round"/>
<path d="M0.5 0.5H1.5C1.76522 0.5 2.01957 0.605357 2.20711 0.792893C2.39464 0.98043 2.5 1.23478 2.5 1.5V10" stroke="#FBFCFC" stroke-linecap="round" stroke-linejoin="round"/>
<path d="M4.00001 11.75C4.00495 11.8333 4.00495 11.9168 4.00001 12C3.96764 12.4495 3.76214 12.8689 3.42677 13.1699C3.0914 13.4709 2.65232 13.6301 2.20197 13.6139C1.75161 13.5977 1.3251 13.4074 1.01222 13.0831C0.699346 12.7587 0.524506 12.3257 0.524506 11.875C0.524506 11.4244 0.699346 10.9913 1.01222 10.667C1.3251 10.3426 1.75161 10.1523 2.20197 10.1361C2.65232 10.1199 3.0914 10.2791 3.42677 10.5801C3.76214 10.8811 3.96764 11.3005 4.00001 11.75V11.75Z" stroke="#FBFCFC" stroke-linecap="round" stroke-linejoin="round"/>
<path d="M8.5 7H9.5" stroke="#FBFCFC" stroke-linecap="round" stroke-linejoin="round"/>
</g>
<defs>
<clipPath id="clip0_9_2455">
<rect width="14" height="14" fill="white"/>
</clipPath>
</defs>
</svg>
